<?xml version="1.0" standalone="no"?>
<!DOCTYPE svg PUBLIC "-//W3C//DTD SVG 20010904//EN"
 "http://www.w3.org/TR/2001/REC-SVG-20010904/DTD/svg10.dtd">
<svg version="1.0" xmlns="http://www.w3.org/2000/svg"
 width="700.000000pt" height="700.000000pt" viewBox="0 0 700.000000 700.000000"
 preserveAspectRatio="xMidYMid meet">
<metadata>
Created by potrace 1.14, written by Peter Selinger 2001-2017
</metadata>
<g transform="translate(0.000000,700.000000) scale(0.100000,-0.100000)"
fill="#000000" stroke="none">
<path d="M3270 6993 c-204 -19 -261 -26 -365 -43 -1228 -207 -2272 -1083
-2699 -2263 -195 -539 -253 -1142 -166 -1718 104 -687 416 -1333 891 -1845
669 -720 1592 -1124 2569 -1124 1181 0 2271 589 2926 1580 261 396 444 858
523 1320 37 217 46 331 46 600 0 426 -49 733 -177 1115 -480 1432 -1831 2396
-3338 2383 -96 -1 -191 -3 -210 -5z m478 -159 c663 -38 1366 -323 1900 -770
541 -453 929 -1074 1097 -1756 70 -285 95 -498 95 -808 0 -231 -9 -355 -41
-548 -235 -1420 -1356 -2532 -2779 -2756 -241 -38 -602 -50 -835 -26 -1180
117 -2196 828 -2705 1894 -238 498 -343 1024 -319 1599 64 1509 1164 2799
2654 3111 313 65 564 82 933 60z"/>
<path d="M2746 5085 c-43 -39 -37 -89 19 -154 25 -30 44 -56 41 -59 -14 -14
-458 57 -843 134 -149 30 -284 54 -300 54 -15 0 -52 -11 -81 -25 l-52 -24 -38
22 c-52 31 -169 31 -228 0 -49 -26 -99 -73 -120 -114 -28 -55 -125 -508 -136
-639 -19 -227 16 -624 71 -800 28 -89 66 -151 154 -248 54 -61 89 -112 126
-187 72 -145 138 -200 286 -239 32 -8 84 -31 116 -51 196 -121 491 -206 659
-189 l69 6 20 -33 c12 -19 24 -50 27 -69 18 -97 86 -176 177 -206 46 -15 114
-16 236 -2 21 3 25 -4 40 -57 24 -85 56 -140 114 -202 108 -114 253 -153 364
-98 76 38 133 126 133 204 0 42 20 60 83 76 75 19 168 67 237 121 31 24 82 53
115 64 81 28 103 44 110 83 9 47 -9 86 -49 102 -30 13 -41 13 -88 -1 -69 -21
-143 -58 -193 -98 -61 -49 -105 -72 -170 -91 -33 -10 -73 -22 -89 -28 -71 -26
-122 -99 -133 -189 -13 -105 -79 -117 -173 -32 -45 41 -73 89 -85 144 -12 59
-54 137 -91 169 -41 36 -92 41 -168 15 -57 -19 -138 -15 -165 10 -10 9 -23 40
-30 70 -16 73 -67 154 -119 191 -43 30 -46 30 -175 31 -141 1 -212 14 -347 64
-97 36 -164 68 -226 107 -50 31 -107 54 -182 73 -61 15 -104 58 -146 146 -46
96 -76 139 -165 239 -47 53 -78 97 -92 134 -51 138 -88 536 -70 758 11 129
100 540 126 580 34 51 109 37 130 -26 14 -43 49 -71 89 -71 44 0 70 21 90 74
10 25 26 48 36 51 11 3 81 -7 157 -24 268 -58 724 -137 911 -157 34 -4 62 -10
62 -15 0 -4 -20 -24 -44 -44 -71 -58 -81 -129 -24 -169 49 -35 80 -23 195 77
184 158 203 178 203 219 0 41 -2 44 -158 220 -56 64 -110 119 -118 122 -33 13
-72 5 -98 -19z"/>
<path d="M5615 4954 c-62 -16 -92 -30 -127 -62 -45 -41 -68 -82 -92 -165 -20
-70 -76 -136 -138 -162 -126 -53 -167 -76 -203 -112 -36 -37 -53 -66 -101
-180 -9 -22 -40 -50 -104 -93 -51 -34 -93 -60 -96 -58 -2 3 -13 49 -23 103
-11 54 -33 123 -48 154 -58 121 -192 213 -337 234 -61 9 -96 8 -192 -7 l-117
-17 -68 48 c-265 187 -256 183 -487 183 l-164 0 -29 -29 c-38 -39 -40 -88 -3
-125 27 -26 28 -26 181 -26 111 0 163 -4 188 -14 19 -8 96 -58 171 -112 159
-114 169 -116 344 -89 126 19 184 12 257 -31 76 -44 105 -97 129 -232 31 -177
75 -242 162 -242 60 1 105 21 236 109 106 72 152 119 175 183 40 110 50 120
153 165 53 22 118 55 143 73 58 40 109 116 141 211 14 40 32 81 41 91 24 26
84 24 110 -4 36 -39 113 -171 113 -194 0 -12 -19 -47 -42 -77 -24 -31 -69 -89
-101 -130 -50 -64 -58 -81 -63 -128 -11 -117 -12 -119 -89 -198 -83 -87 -130
-156 -187 -279 -37 -80 -40 -92 -35 -152 2 -36 15 -99 28 -140 30 -98 32 -192
3 -240 -11 -19 -62 -89 -114 -155 -121 -156 -145 -206 -145 -305 0 -69 4 -82
47 -170 26 -52 77 -135 115 -185 55 -72 68 -96 68 -126 0 -65 -67 -139 -126
-139 -64 0 -174 115 -247 258 -29 55 -65 112 -82 125 -37 32 -126 51 -189 42
l-46 -7 59 62 c55 57 58 63 53 98 -11 65 -75 100 -130 70 -41 -21 -282 -251
-295 -280 -7 -15 -10 -39 -6 -53 9 -38 268 -311 300 -318 37 -7 67 6 93 39 35
45 23 90 -43 153 -20 19 -36 39 -36 43 0 4 28 8 63 8 l63 0 33 -67 c46 -95
108 -179 183 -249 83 -77 125 -97 216 -102 66 -4 79 -1 138 28 48 23 74 45
103 83 58 78 74 115 79 187 5 85 -16 142 -95 246 -111 147 -151 234 -132 291
6 19 58 95 117 171 141 184 157 218 157 347 0 80 -6 120 -29 202 l-29 101 47
96 c37 77 64 114 135 190 98 104 131 168 131 254 0 45 5 54 89 159 104 130
125 176 119 266 -3 54 -11 77 -53 151 -61 108 -122 178 -178 205 -43 21 -127
33 -162 25z"/>
</g>
</svg>
