<svg xmlns="http://www.w3.org/2000/svg" xmlns:xlink="http://www.w3.org/1999/xlink" width="127.099" height="53.472" viewBox="0 0 127.099 53.472"><defs><style>.a{fill:url(#a);}</style><linearGradient id="a" x1="0.5" x2="0.5" y2="1" gradientUnits="objectBoundingBox"><stop offset="0" stop-color="#8dc63f"/><stop offset="1" stop-color="#27aae1"/></linearGradient></defs><path class="a" d="M398.633,284.573a5.842,5.842,0,1,1-5.842,5.842A5.848,5.848,0,0,1,398.633,284.573Zm0,7.96a2.118,2.118,0,1,0-2.118-2.118A2.12,2.12,0,0,0,398.633,292.533Z" transform="translate(-374.881 -250.744)"/><path class="a" d="M94.019,284.573a5.842,5.842,0,1,1-5.842,5.842A5.848,5.848,0,0,1,94.019,284.573Zm0,7.96a2.118,2.118,0,1,0-2.118-2.118A2.12,2.12,0,0,0,94.019,292.533Z" transform="translate(5.35 -250.744)"/><path class="a" d="M2.541,171.453c2.259-2.391,6.732-5.242,15.22-5.246l15.514-.345,12.356-12.356A17.665,17.665,0,0,1,58.2,148.3H77.479A41.445,41.445,0,0,1,93.5,151.5l13.029,5.429a28,28,0,0,0,6.806,1.871l8.465,1.209a3.87,3.87,0,0,1,3.307,3.813v8.925a3.824,3.824,0,0,1,.8.584,3.869,3.869,0,0,1,1.187,2.781v6.861a5.867,5.867,0,0,1-4.237,5.617l-10.151,2.9a13.8,13.8,0,1,1-22.182-14.114L41.74,179.455a1.862,1.862,0,0,1-.158-3.72l71.844-3.057v-.629a7.84,7.84,0,0,1,7.831-7.831h.128v-.392a.129.129,0,0,0-.11-.127l-8.465-1.209a31.735,31.735,0,0,1-7.712-2.12l-5.6-2.332-2.449,4.9a9.8,9.8,0,0,1-8.566,5.427l-70.664,1.57h-.041a22.243,22.243,0,0,0-8.643,1.482,5.8,5.8,0,0,1,3.718,5.442v.665l2.031-.119a13.8,13.8,0,0,1,22.5,12.686H79.468a1.862,1.862,0,1,1,0,3.724H36.251a13.8,13.8,0,0,1-25,0H5.842A5.848,5.848,0,0,1,0,187.969v-9.919a9.538,9.538,0,0,1,2.54-6.6Zm86.75,16.515a10.078,10.078,0,1,0,10.078-10.078A10.089,10.089,0,0,0,89.29,187.968Zm23.867-.475,8.682-2.48a2.127,2.127,0,0,0,1.536-2.037v-6.861a.122.122,0,0,0-.039-.093.119.119,0,0,0-.094-.035l-15.966.679A13.794,13.794,0,0,1,113.158,187.493Zm8.1-19.553a4.112,4.112,0,0,0-4.108,4.108v.471l4.236-.18v-4.4Zm-72.994-11.8-9.6,9.6,27.008-.6V152.022H58.2A13.966,13.966,0,0,0,48.264,156.139Zm21.127-4.118V165.06l16.176-.359V152.892a37.852,37.852,0,0,0-8.088-.871H69.391Zm24.331,9.247,2.334-4.667L92.07,154.94q-1.375-.573-2.78-1.033v10.645A6.083,6.083,0,0,0,93.723,161.268ZM9.133,176.854a2.105,2.105,0,0,0-1.507-2.028l-2.446-.737a5.842,5.842,0,0,0-1.456,3.96v0l5.409-.317v-.883Zm14.618,21.192a10.078,10.078,0,1,0-10.078-10.078A10.089,10.089,0,0,0,23.751,198.046Zm-17.909-7.96h4.271a13.858,13.858,0,0,1-.163-2.118,13.714,13.714,0,0,1,1.712-6.649l-7.938.465v6.184A2.12,2.12,0,0,0,5.842,190.086Z" transform="translate(0 -148.298)"/></svg>