<svg xmlns="http://www.w3.org/2000/svg" xmlns:xlink="http://www.w3.org/1999/xlink" width="64.288" height="81.828" viewBox="0 0 64.288 81.828"><defs><style>.a{fill:url(#a);}</style><linearGradient id="a" x1="0.5" x2="0.5" y2="1" gradientUnits="objectBoundingBox"><stop offset="0" stop-color="#8dc63f"/><stop offset="1" stop-color="#27aae1"/></linearGradient></defs><g transform="translate(0 0)"><path class="a" d="M103.143,10.721h-7.4V7.409c0-1.071-1.169-1.558-2.24-1.558H87.753A8.713,8.713,0,0,0,79.084.006a8.864,8.864,0,0,0-8.669,5.844h-5.65c-1.071,0-2.143.487-2.143,1.558v3.312h-7.4a8.28,8.28,0,0,0-8.182,7.89V74.425c0,4.286,3.9,7.4,8.182,7.4h47.924c4.286,0,8.182-3.117,8.182-7.4V18.611A8.28,8.28,0,0,0,103.143,10.721ZM66.518,9.747h5.357a2.143,2.143,0,0,0,1.851-1.753,5.65,5.65,0,0,1,5.357-4.383,5.552,5.552,0,0,1,5.26,4.383,2.143,2.143,0,0,0,1.948,1.753h5.552V17.54H66.518Zm40.911,64.678c0,2.143-2.143,3.507-4.286,3.507H55.219c-2.143,0-4.286-1.364-4.286-3.507V18.611a4.383,4.383,0,0,1,4.286-3.994h7.4v4.968a2.046,2.046,0,0,0,2.143,1.851H93.5a2.143,2.143,0,0,0,2.24-1.851V14.617h7.4a4.383,4.383,0,0,1,4.286,3.994V74.425Z" transform="translate(-47.037 0)"/><path class="a" d="M114.266,230.919a1.948,1.948,0,0,0-2.727-.1l-6.234,5.942-2.63-2.727a1.948,1.948,0,0,0-2.727-.1,2.046,2.046,0,0,0,0,2.825l3.994,4.091a1.753,1.753,0,0,0,1.364.585,1.948,1.948,0,0,0,1.364-.585l7.6-7.208a1.85,1.85,0,0,0,.112-2.615C114.342,230.992,114.3,230.955,114.266,230.919Z" transform="translate(-89.622 -187.372)"/><path class="a" d="M222.9,256.034H200.5a1.948,1.948,0,0,0,0,3.9h22.4a1.948,1.948,0,0,0,0-3.9Z" transform="translate(-170.3 -208.299)"/><path class="a" d="M114.266,147.327a1.948,1.948,0,0,0-2.727-.1l-6.234,5.942-2.63-2.727a1.948,1.948,0,0,0-2.727-.1,2.046,2.046,0,0,0,0,2.825l3.994,4.091a1.753,1.753,0,0,0,1.364.584,1.948,1.948,0,0,0,1.364-.584l7.6-7.208a1.85,1.85,0,0,0,.112-2.615C114.342,147.4,114.3,147.363,114.266,147.327Z" transform="translate(-89.622 -119.365)"/><path class="a" d="M222.9,172.442H200.5a1.948,1.948,0,0,0,0,3.9h22.4a1.948,1.948,0,1,0,0-3.9Z" transform="translate(-170.3 -140.292)"/><path class="a" d="M114.266,314.51a1.948,1.948,0,0,0-2.727-.1l-6.234,5.942-2.63-2.727a1.948,1.948,0,0,0-2.727-.1,2.046,2.046,0,0,0,0,2.825l3.994,4.091a1.753,1.753,0,0,0,1.364.585,1.948,1.948,0,0,0,1.364-.585l7.6-7.208a1.85,1.85,0,0,0,.112-2.615C114.342,314.584,114.3,314.546,114.266,314.51Z" transform="translate(-89.622 -255.378)"/><path class="a" d="M222.9,339.626H200.5a1.948,1.948,0,0,0,0,3.9h22.4a1.948,1.948,0,1,0,0-3.9Z" transform="translate(-170.3 -276.305)"/></g></svg>