<svg xmlns="http://www.w3.org/2000/svg" xmlns:xlink="http://www.w3.org/1999/xlink" width="182" height="182" viewBox="0 0 182 182"><defs><linearGradient id="a" x1="-1.024" y1="-0.566" x2="1.472" y2="0.94" gradientUnits="objectBoundingBox"><stop offset="0" stop-color="#8dc63f"/><stop offset="1" stop-color="#27aae1"/></linearGradient><linearGradient id="b" x1="-0.403" y1="-0.149" x2="1.777" y2="1.252" xlink:href="#a"/></defs><g transform="translate(-847 -589)"><g transform="translate(847 589)" fill="#fff"><path d="M 91 179.5 C 84.99375152587891 179.5 78.99202728271484 178.8950500488281 73.16152191162109 177.7019500732422 C 67.48047637939453 176.5394439697266 61.89242553710938 174.8048248291016 56.55257415771484 172.5462493896484 C 51.30912399291992 170.3284759521484 46.25162506103516 167.5833282470703 41.52054977416992 164.3870697021484 C 36.83380126953125 161.2207489013672 32.42647552490234 157.5843811035156 28.42104911804199 153.5789489746094 C 24.41562461853027 149.5735321044922 20.77924919128418 145.1661987304688 17.61292457580566 140.4794464111328 C 14.41667461395264 135.7483825683594 11.67152500152588 130.6908721923828 9.453749656677246 125.4474258422852 C 7.195175170898438 120.1075744628906 5.460549831390381 114.5195236206055 4.298049926757813 108.8384780883789 C 3.104949951171875 103.0079727172852 2.5 97.00624847412109 2.5 91 C 2.5 84.99375152587891 3.104949951171875 78.99202728271484 4.298049926757813 73.16152191162109 C 5.460549831390381 67.48047637939453 7.195175170898438 61.89242553710938 9.453749656677246 56.55257415771484 C 11.67152500152588 51.30912399291992 14.41667461395264 46.25162506103516 17.61292457580566 41.52054977416992 C 20.77924919128418 36.83380126953125 24.41562461853027 32.42647552490234 28.42104911804199 28.42104911804199 C 32.42647552490234 24.41562461853027 36.83380126953125 20.77924919128418 41.52054977416992 17.61292457580566 C 46.25162506103516 14.41667461395264 51.30912399291992 11.67152500152588 56.55257415771484 9.453749656677246 C 61.89242553710938 7.195175170898438 67.48047637939453 5.460549831390381 73.16152191162109 4.298049926757813 C 78.99202728271484 3.104949951171875 84.99375152587891 2.5 91 2.5 C 97.00624847412109 2.5 103.0079727172852 3.104949951171875 108.8384780883789 4.298049926757813 C 114.5195236206055 5.460549831390381 120.1075744628906 7.195175170898438 125.4474258422852 9.453749656677246 C 130.6908721923828 11.67152500152588 135.7483825683594 14.41667461395264 140.4794464111328 17.61292457580566 C 145.1661987304688 20.77924919128418 149.5735321044922 24.41562461853027 153.5789489746094 28.42104911804199 C 157.5843811035156 32.42647552490234 161.2207489013672 36.83380126953125 164.3870697021484 41.52054977416992 C 167.5833282470703 46.25162506103516 170.3284759521484 51.30912399291992 172.5462493896484 56.55257415771484 C 174.8048248291016 61.89242553710938 176.5394439697266 67.48047637939453 177.7019500732422 73.16152191162109 C 178.8950500488281 78.99202728271484 179.5 84.99375152587891 179.5 91 C 179.5 97.00624847412109 178.8950500488281 103.0079727172852 177.7019500732422 108.8384780883789 C 176.5394439697266 114.5195236206055 174.8048248291016 120.1075744628906 172.5462493896484 125.4474258422852 C 170.3284759521484 130.6908721923828 167.5833282470703 135.7483825683594 164.3870697021484 140.4794464111328 C 161.2207489013672 145.1661987304688 157.5843811035156 149.5735321044922 153.5789489746094 153.5789489746094 C 149.5735321044922 157.5843811035156 145.1661987304688 161.2207489013672 140.4794464111328 164.3870697021484 C 135.7483825683594 167.5833282470703 130.6908721923828 170.3284759521484 125.4474258422852 172.5462493896484 C 120.1075744628906 174.8048248291016 114.5195236206055 176.5394439697266 108.8384780883789 177.7019500732422 C 103.0079727172852 178.8950500488281 97.00624847412109 179.5 91 179.5 Z" stroke="none"/><path d="M 91 5 C 85.16175079345703 5 79.32863616943359 5.587860107421875 73.66269683837891 6.747283935546875 C 68.14333343505859 7.876724243164063 62.71430206298828 9.561965942382813 57.52644348144531 11.75625610351563 C 52.43167114257813 13.91116333007813 47.51739501953125 16.57861328125 42.92005920410156 19.68447875976563 C 38.36514282226563 22.76171875 34.08172607421875 26.29588317871094 30.18881225585938 30.18881225585938 C 26.29588317871094 34.08172607421875 22.76171875 38.36514282226563 19.68447875976563 42.92005920410156 C 16.57861328125 47.51739501953125 13.91116333007813 52.43167114257813 11.75625610351563 57.52644348144531 C 9.561965942382813 62.71430206298828 7.876724243164063 68.14333343505859 6.747283935546875 73.66269683837891 C 5.587860107421875 79.32863616943359 5 85.16175079345703 5 91 C 5 96.83824920654297 5.587860107421875 102.6713638305664 6.747283935546875 108.3372802734375 C 7.876724243164063 113.8566665649414 9.561965942382813 119.2856903076172 11.75625610351563 124.4735260009766 C 13.91116333007813 129.5682983398438 16.57861328125 134.4826049804688 19.68447875976563 139.0799255371094 C 22.76171875 143.6348266601563 26.29588317871094 147.9182434082031 30.18881225585938 151.8111724853516 C 34.08172607421875 155.7040863037109 38.36514282226563 159.2382507324219 42.92005920410156 162.3155059814453 C 47.51739501953125 165.42138671875 52.43167114257813 168.0888366699219 57.52644348144531 170.2437438964844 C 62.71430206298828 172.4380340576172 68.14333343505859 174.1232757568359 73.66269683837891 175.2527160644531 C 79.32863616943359 176.4121398925781 85.16175079345703 177 91 177 C 96.83824920654297 177 102.6713638305664 176.4121398925781 108.3372802734375 175.2527160644531 C 113.8566665649414 174.1232757568359 119.2856903076172 172.4380340576172 124.4735260009766 170.2437438964844 C 129.5682983398438 168.0888366699219 134.4826049804688 165.42138671875 139.0799255371094 162.3155059814453 C 143.6348266601563 159.2382507324219 147.9182434082031 155.7040863037109 151.8111724853516 151.8111724853516 C 155.7040863037109 147.9182434082031 159.2382507324219 143.6348266601563 162.3155059814453 139.0799255371094 C 165.42138671875 134.4826049804688 168.0888366699219 129.5682983398438 170.2437438964844 124.4735260009766 C 172.4380340576172 119.2856903076172 174.1232757568359 113.8566665649414 175.2527160644531 108.3372802734375 C 176.4121398925781 102.6713638305664 177 96.83824920654297 177 91 C 177 85.16175079345703 176.4121398925781 79.32863616943359 175.2527160644531 73.66269683837891 C 174.1232757568359 68.14333343505859 172.4380340576172 62.71430206298828 170.2437438964844 57.52644348144531 C 168.0888366699219 52.43167114257813 165.42138671875 47.51739501953125 162.3155059814453 42.92005920410156 C 159.2382507324219 38.36514282226563 155.7040863037109 34.08172607421875 151.8111724853516 30.18881225585938 C 147.9182434082031 26.29588317871094 143.6348266601563 22.76171875 139.0799255371094 19.68447875976563 C 134.4826049804688 16.57861328125 129.5682983398438 13.91116333007813 124.4735260009766 11.75625610351563 C 119.2856903076172 9.561965942382813 113.8566665649414 7.876724243164063 108.3372802734375 6.747283935546875 C 102.6713638305664 5.587860107421875 96.83824920654297 5 91 5 M 91 0 C 141.2578887939453 0 182 40.74208068847656 182 91 C 182 141.2578887939453 141.2578887939453 182 91 182 C 40.74208068847656 182 0 141.2578887939453 0 91 C 0 40.74208068847656 40.74208068847656 0 91 0 Z" stroke="none" fill="#045e73"/></g><g transform="translate(621.167 597.588)"><path d="M371.035,50.728l-2.146-3.5a7.141,7.141,0,0,0-7.282-3.367,6.723,6.723,0,0,0-5.547,5.264,6.678,6.678,0,0,1-2.359,4.124,14.49,14.49,0,0,1-3.147,1.431,8.726,8.726,0,0,0-5.835,6.194,2.923,2.923,0,0,1-1.137,1.859c-.471.3-1,.666-1.553,1.051-.692.484-1.888,1.3-2.814,1.84-.155-.591-.259-1.236-.373-1.937-.459-2.841-1.089-6.732-5.818-9.521-3.9-2.3-7.788-1.607-10.373-1.147a13.677,13.677,0,0,1-2.133.276c-2.242-1.561-5.142-3.676-6-4.3a8.726,8.726,0,0,0-5.377-1.656c-1.944.063-4.066.054-6.307-.022a2.436,2.436,0,1,0-.166,4.868c2.348.08,4.579.087,6.628.023a3.8,3.8,0,0,1,2.349.726c.885.648,3.953,2.884,6.258,4.479,1.593,1.111,3.536.767,5.613.4,2.3-.41,4.682-.834,7.032.551,2.761,1.627,3.079,3.6,3.484,6.109a14.767,14.767,0,0,0,1.243,4.478,3.389,3.389,0,0,0,2.162,1.929c1.961.506,4.088-.828,7.358-3.087.523-.363,1.017-.7,1.42-.961a7.734,7.734,0,0,0,3.225-4.764,3.826,3.826,0,0,1,2.539-2.731,19.309,19.309,0,0,0,4.212-1.9c3.026-1.8,4.192-5.317,4.621-7.255a1.9,1.9,0,0,1,1.6-1.513,2.239,2.239,0,0,1,2.324,1.11l2.147,3.5a1.96,1.96,0,0,1-.136,2.239c-1.285,1.626-3.043,3.83-4.106,5.091a4.358,4.358,0,0,0-.886,3.2,4.675,4.675,0,0,1-1.816,4c-2.794,2.163-4.287,5.4-5.377,7.76l-.042.093q-.278.6-.535,1.137c-.736,1.495-.346,3.468.184,5.377l.016.052.681,2.262c.062.271.121.548.157.815a5.965,5.965,0,0,1-.633,4.309c-.621.827-1.351,1.77-2.239,2.9l-1.426,1.841c-.466.605-.905,1.2-1.3,1.727l-.047.065-.038.056a8.582,8.582,0,0,0-1.695,5.02c.121,3.479,3.114,7.814,5.605,10.839a2.693,2.693,0,0,1,0,3.366l-.548.758a2.646,2.646,0,0,1-3.668.623,15.916,15.916,0,0,1-5-6.516,18.128,18.128,0,0,0-1.266-2.289c-1.29-1.851-4.05-1.975-6.139-1.753a4.629,4.629,0,0,1-.633.025l2.116-1.949a2.435,2.435,0,1,0-3.3-3.583l-6.554,6.037a2.434,2.434,0,0,0-.142,3.441l6.044,6.562a2.436,2.436,0,0,0,3.583-3.3l-2.179-2.364a9.525,9.525,0,0,0,1.587-.031,6.331,6.331,0,0,1,1.829.017c.206.356.448.841.7,1.351a20.577,20.577,0,0,0,6.545,8.318,7.432,7.432,0,0,0,4.319,1.374,7.535,7.535,0,0,0,6.116-3.116l.549-.759a7.543,7.543,0,0,0-.192-9.32c-3.254-3.951-4.456-6.73-4.5-7.908a3.977,3.977,0,0,1,.862-2.118c.376-.5.79-1.057,1.21-1.616l1.4-1.816c.9-1.143,1.65-2.113,2.3-2.97a10.4,10.4,0,0,0,1.552-7.989c-.067-.415-.148-.832-.242-1.237-.011-.051-.024-.1-.04-.153l-.7-2.316a8.826,8.826,0,0,1-.409-2.086c.162-.338.326-.69.495-1.057l.044-.094c.977-2.117,2.083-4.517,3.935-5.949a9.54,9.54,0,0,0,3.692-8.164v-.048c1.115-1.331,2.743-3.379,3.952-4.908a6.841,6.841,0,0,0,.462-7.8Z" transform="translate(10.201 0.706)" fill="url(#a)"/><path d="M330.832,106.691c-.809.242-1.626.523-2.429.827a11.528,11.528,0,0,0-3.727,2.283,11.62,11.62,0,0,1-5.429,2.447c-2.8.615-4.442,2.792-4.63,6.132a1.524,1.524,0,0,1-.694,1.21,1.54,1.54,0,0,1-1.4.16,6.9,6.9,0,0,1-4.4-5.271,8.863,8.863,0,0,0-1.708-3.752,3.65,3.65,0,0,0-4.259-1.18,6.085,6.085,0,0,1-4.763.266,1.8,1.8,0,0,1-.861-1.426,8.554,8.554,0,0,0-1.265-3.458,6.126,6.126,0,0,0-6.581-3.085c-3.235.847-10-1.686-13.708-3.569a14.078,14.078,0,0,0-5.88-2.645,4.807,4.807,0,0,1-3.41-2.976,18.853,18.853,0,0,0-2.542-4.552,24.568,24.568,0,0,0-2.52-2.882,8.378,8.378,0,0,1-2.187-3.64c-1.755-6.052-1.816-14.1-1.695-18.358a25.6,25.6,0,0,1,.637-4.987l2.279-10.008a2.067,2.067,0,0,1,2.451-1.554c.736.161.961.56,1.163,1.331a3.888,3.888,0,0,0,.169.536,2.435,2.435,0,0,0,4.531-.077,8.661,8.661,0,0,0,.26-.827,1.3,1.3,0,0,1,1.563-.968c3.452.782,12.612,2.766,23.081,4.282h.044l5.628.711-2.194,1.92a2.435,2.435,0,1,0,3.205,3.667l6.716-5.871a2.438,2.438,0,0,0,.23-3.438l-5.873-6.694a2.436,2.436,0,0,0-3.668,3.206l2.087,2.386-5.5-.695c-10.288-1.492-19.288-3.44-22.684-4.21a6.158,6.158,0,0,0-5.17,1.157,6.326,6.326,0,0,0-2.542-1.168,6.95,6.95,0,0,0-8.244,5.229l-2.279,10.006a30.461,30.461,0,0,0-.758,5.931c-.129,4.544-.056,13.164,1.883,19.851a13.257,13.257,0,0,0,3.461,5.766,19.72,19.72,0,0,1,2.015,2.3,14.01,14.01,0,0,1,1.889,3.361,9.664,9.664,0,0,0,6.844,6,8.744,8.744,0,0,1,3.947,1.7,2.421,2.421,0,0,0,.545.387c.98.511,8.674,4.416,14.748,4.414a10.757,10.757,0,0,0,2.711-.317c.191-.048.787.258,1.187.914a3.817,3.817,0,0,1,.583,1.48A6.7,6.7,0,0,0,294.906,114c2.835,1.679,6.251.994,8.093.409a3.723,3.723,0,0,1,.333.968,11.722,11.722,0,0,0,7.519,8.936,6.412,6.412,0,0,0,8.628-5.678c.084-1.485.5-1.574.81-1.645a16.278,16.278,0,0,0,7.67-3.611,6.68,6.68,0,0,1,2.162-1.321c.7-.266,1.419-.51,2.123-.726a2.435,2.435,0,0,0-1.411-4.646Z" transform="translate(0 0)" fill="url(#b)"/></g></g></svg>