<svg xmlns="http://www.w3.org/2000/svg" xmlns:xlink="http://www.w3.org/1999/xlink" width="366.252" height="69.66" viewBox="0 0 366.252 69.66"><defs><style>.a{fill:#035d72;}.b{fill:url(#a);}.c{fill:url(#b);}</style><linearGradient id="a" x1="-1.024" y1="-0.566" x2="1.472" y2="0.94" gradientUnits="objectBoundingBox"><stop offset="0" stop-color="#8dc63f"/><stop offset="1" stop-color="#27aae1"/></linearGradient><linearGradient id="b" x1="-0.403" y1="-0.149" x2="1.777" y2="1.252" xlink:href="#a"/></defs><g transform="translate(-251.831 -40.411)"><path class="a" d="M371.866,87.767a31.208,31.208,0,0,1-5.179-.436c-.529-.094-.592-.219-.592-.562V85.521a.483.483,0,0,1,.53-.5h.094c1.435.125,3.712.187,5.147.187,3.743,0,4.742-1.5,4.742-3.68,0-1.56-.9-2.433-3.744-4.18l-3.025-1.841c-2.87-1.746-4.306-3.337-4.306-5.833,0-3.775,2.714-5.521,7.456-5.521a42.323,42.323,0,0,1,5.428.374c.311.062.53.218.53.53V66.4a.484.484,0,0,1-.53.5h-.063c-1.372-.094-3.556-.187-5.365-.187-3.213,0-4.586.686-4.586,2.963,0,1.466,1.03,2.34,3.4,3.774l2.869,1.716c3.619,2.152,4.9,3.868,4.9,6.364C379.571,84.523,378.011,87.767,371.866,87.767Z"/><path class="a" d="M395.762,87.549h-1.5a.626.626,0,0,1-.624-.624V76.662c0-3.119-1.31-4.086-3.337-4.086a12.143,12.143,0,0,0-4.3.873V86.925a.647.647,0,0,1-.624.624h-1.528a.621.621,0,0,1-.593-.624V64.715a.6.6,0,0,1,.593-.624h1.56a.6.6,0,0,1,.592.624v6.426a13.025,13.025,0,0,1,4.772-.967c3.307,0,5.616,1.9,5.616,6.488V86.925A.626.626,0,0,1,395.762,87.549Z"/><path class="a" d="M403.158,67.647h-1.59a.625.625,0,0,1-.625-.623v-2.5a.626.626,0,0,1,.625-.624h1.59a.626.626,0,0,1,.624.624v2.5A.625.625,0,0,1,403.158,67.647Zm-.063,19.9h-1.5a.626.626,0,0,1-.624-.624V71.016a.626.626,0,0,1,.624-.624h1.5a.626.626,0,0,1,.625.624V86.925A.626.626,0,0,1,403.1,87.549Z"/><path class="a" d="M414.732,87.767a22.972,22.972,0,0,1-3.649-.343v5.647a.593.593,0,0,1-.593.592H408.9a.567.567,0,0,1-.562-.592V71.609c0-.4.094-.593.655-.718a25.84,25.84,0,0,1,5.74-.717c4.648,0,6.8,3.026,6.8,7.7v2.246C421.533,85.022,419.286,87.767,414.732,87.767Zm4.055-9.888c0-3.275-.967-5.4-4.055-5.4a23.069,23.069,0,0,0-3.649.312V85.147a24.373,24.373,0,0,0,3.649.312c3.057,0,4.055-2,4.055-5.334Z"/><path class="a" d="M438.535,87.268a14.709,14.709,0,0,1-4.367.562c-5.74,0-9.608-3.12-9.608-10.263V74.354c0-7.143,3.868-10.263,9.608-10.263a14.709,14.709,0,0,1,4.367.562c.5.156.686.249.686.686v3.993c0,.437-.124.655-.655.593a40.421,40.421,0,0,0-4.367-.281c-1.685,0-3.212.748-3.212,4.71v3.213c0,3.931,1.5,4.71,3.212,4.71a35,35,0,0,0,4.367-.28c.562-.063.655.218.655.592v3.993C439.221,86.988,439.034,87.112,438.535,87.268Z"/><path class="a" d="M449.861,87.83c-5.209,0-8.2-2.964-8.2-8.454V77.567c0-5.49,2.994-8.453,8.2-8.453s8.173,2.963,8.173,8.453v1.809C458.034,84.866,455.071,87.83,449.861,87.83Zm2.215-10.263c0-2.464-.78-3.431-2.215-3.431s-2.246.936-2.246,3.431v1.809c0,2.465.811,3.463,2.246,3.463s2.215-.967,2.215-3.463Z"/><path class="a" d="M475.037,87.549H470.7a.625.625,0,0,1-.623-.624V86.27a7.624,7.624,0,0,1-4.461,1.56c-2.464,0-5.334-1.373-5.334-5.584v-.374c0-3.744,2.838-5.085,8.048-5.085h1.341v-.9c0-1.528-.5-1.809-2.059-1.809-1.747,0-4.554.156-5.427.219-.531.031-.686-.25-.686-.624V70.642c0-.468.249-.624.623-.749a25.134,25.134,0,0,1,5.709-.748c4.522,0,7.83,1.622,7.83,6.737V86.925A.627.627,0,0,1,475.037,87.549Zm-5.178-7.518h-1.528c-1.56,0-2.184.5-2.184,1.81v.312c0,1.06.717,1.372,1.591,1.372a5.437,5.437,0,0,0,2.121-.468Z"/><path class="a" d="M484.9,87.83a22.344,22.344,0,0,1-5.771-.749.674.674,0,0,1-.593-.686V83.182c0-.468.188-.749.78-.655,1.9.249,4.336.5,5.365.5,1.249,0,1.466-.312,1.466-.873,0-.375-.187-.655-.935-1.061L481.4,79.033a5.2,5.2,0,0,1-2.963-4.928c0-3.182,2.214-4.991,6.862-4.991a21.418,21.418,0,0,1,5.74.779.7.7,0,0,1,.624.687v3.275c0,.406-.093.686-.624.624-.9-.125-3.961-.468-5.365-.468-.811,0-1.155.187-1.155.624,0,.374.219.53.687.78l3.649,1.965c2.559,1.373,3.276,3.119,3.276,4.866C492.135,85.4,489.951,87.83,484.9,87.83Z"/><path class="a" d="M505.176,73.824H502.8v8.391c0,.936.1,1.185.874,1.185h1.435a.609.609,0,0,1,.655.593v2.932c0,.343-.281.53-.655.624a13.5,13.5,0,0,1-2.776.281c-3.338,0-5.522-1.03-5.522-5.677V73.824l-2.058-.468a.792.792,0,0,1-.655-.686V70.049a.658.658,0,0,1,.655-.655h2.058V66.868a.73.73,0,0,1,.655-.655l4.648-.812c.562-.093.686.25.686.593v3.4h2.371a.625.625,0,0,1,.624.624V73.2A.625.625,0,0,1,505.176,73.824Z"/><path class="a" d="M517.5,87.611a15.111,15.111,0,0,1-2.028.156c-2.87,0-4.242-.748-4.242-4.179V72.7l-3.026-.343c-.343-.032-.593-.219-.593-.562v-.842a.55.55,0,0,1,.593-.562h3.026V67.335a.634.634,0,0,1,.561-.623l1.622-.25h.094a.5.5,0,0,1,.468.53v3.4h3.369a.625.625,0,0,1,.623.624v1.061a.625.625,0,0,1-.623.624h-3.369V83.588c0,1.715.436,1.965,1.684,1.965h1.747c.437,0,.656.125.656.436v1.092C518.062,87.362,517.905,87.549,517.5,87.611Z"/><path class="a" d="M526.86,87.767c-4.585,0-6.925-3.025-6.925-7.611V77.785c0-4.585,2.34-7.611,6.925-7.611s6.956,3.026,6.956,7.611v2.371C533.816,84.742,531.445,87.767,526.86,87.767Zm4.211-9.982c0-3.181-1.279-5.209-4.211-5.209-2.9,0-4.18,2-4.18,5.209v2.371c0,3.182,1.248,5.209,4.18,5.209,2.9,0,4.211-2,4.211-5.209Z"/><path class="a" d="M550.819,87.268a14.708,14.708,0,0,1-4.367.562c-5.739,0-9.608-3.12-9.608-10.263V74.354c0-7.143,3.869-10.263,9.608-10.263a14.708,14.708,0,0,1,4.367.562c.5.156.687.249.687.686v3.993c0,.437-.125.655-.655.593a40.458,40.458,0,0,0-4.368-.281c-1.684,0-3.212.748-3.212,4.71v3.213c0,3.931,1.5,4.71,3.212,4.71a35.028,35.028,0,0,0,4.368-.28c.561-.063.655.218.655.592v3.993C551.506,86.988,551.318,87.112,550.819,87.268Z"/><path class="a" d="M562.144,87.83c-5.209,0-8.2-2.964-8.2-8.454V77.567c0-5.49,2.994-8.453,8.2-8.453s8.173,2.963,8.173,8.453v1.809C570.317,84.866,567.354,87.83,562.144,87.83Zm2.215-10.263c0-2.464-.779-3.431-2.215-3.431s-2.245.936-2.245,3.431v1.809c0,2.465.811,3.463,2.245,3.463s2.215-.967,2.215-3.463Z"/><path class="a" d="M587.32,87.549h-4.336a.625.625,0,0,1-.623-.624V86.27a7.625,7.625,0,0,1-4.461,1.56c-2.464,0-5.334-1.373-5.334-5.584v-.374c0-3.744,2.839-5.085,8.048-5.085h1.342v-.9c0-1.528-.5-1.809-2.059-1.809-1.748,0-4.555.156-5.428.219-.53.031-.686-.25-.686-.624V70.642c0-.468.249-.624.624-.749a25.116,25.116,0,0,1,5.708-.748c4.523,0,7.83,1.622,7.83,6.737V86.925A.626.626,0,0,1,587.32,87.549Zm-5.178-7.518h-1.528c-1.56,0-2.183.5-2.183,1.81v.312c0,1.06.717,1.372,1.59,1.372a5.433,5.433,0,0,0,2.121-.468Z"/><path class="a" d="M597.181,87.83a22.329,22.329,0,0,1-5.77-.749.674.674,0,0,1-.593-.686V83.182c0-.468.187-.749.779-.655,1.9.249,4.336.5,5.366.5,1.248,0,1.466-.312,1.466-.873,0-.375-.188-.655-.936-1.061l-3.8-2.059a5.2,5.2,0,0,1-2.964-4.928c0-3.182,2.215-4.991,6.862-4.991a21.418,21.418,0,0,1,5.74.779.7.7,0,0,1,.624.687v3.275c0,.406-.093.686-.624.624-.9-.125-3.961-.468-5.365-.468-.811,0-1.154.187-1.154.624,0,.374.218.53.686.78l3.65,1.965c2.558,1.373,3.275,3.119,3.275,4.866C604.418,85.4,602.234,87.83,597.181,87.83Z"/><path class="a" d="M617.46,73.824h-2.371v8.391c0,.936.094,1.185.873,1.185H617.4a.609.609,0,0,1,.655.593v2.932c0,.343-.28.53-.655.624a13.494,13.494,0,0,1-2.776.281c-3.338,0-5.521-1.03-5.521-5.677V73.824l-2.059-.468a.792.792,0,0,1-.655-.686V70.049a.659.659,0,0,1,.655-.655H609.1V66.868a.729.729,0,0,1,.655-.655L614.4,65.4c.562-.093.687.25.687.593v3.4h2.371a.625.625,0,0,1,.623.624V73.2A.625.625,0,0,1,617.46,73.824Z"/><path class="b" d="M358.742,49.518l-1.773-2.891a5.9,5.9,0,0,0-6.016-2.782,5.554,5.554,0,0,0-4.583,4.349,5.517,5.517,0,0,1-1.949,3.407,11.971,11.971,0,0,1-2.6,1.182A7.209,7.209,0,0,0,337,57.9a2.415,2.415,0,0,1-.939,1.536c-.389.25-.823.55-1.283.868-.572.4-1.56,1.077-2.325,1.52-.128-.488-.214-1.021-.308-1.6-.379-2.347-.9-5.562-4.807-7.866-3.224-1.9-6.434-1.328-8.57-.948a11.3,11.3,0,0,1-1.762.228c-1.852-1.29-4.248-3.037-4.955-3.554a7.209,7.209,0,0,0-4.442-1.368c-1.606.052-3.359.045-5.211-.018a2.012,2.012,0,0,0-.137,4.022c1.94.066,3.783.072,5.476.019a3.138,3.138,0,0,1,1.941.6c.731.535,3.266,2.383,5.17,3.7,1.316.918,2.921.634,4.637.331,1.9-.339,3.868-.689,5.81.455,2.281,1.344,2.544,2.975,2.878,5.047a12.2,12.2,0,0,0,1.027,3.7,2.8,2.8,0,0,0,1.786,1.594c1.62.418,3.377-.684,6.079-2.55.432-.3.84-.58,1.173-.794a6.39,6.39,0,0,0,2.664-3.936A3.161,3.161,0,0,1,343,56.63a15.952,15.952,0,0,0,3.48-1.572c2.5-1.487,3.463-4.393,3.818-5.994a1.569,1.569,0,0,1,1.32-1.25,1.85,1.85,0,0,1,1.92.917l1.774,2.893a1.619,1.619,0,0,1-.112,1.85c-1.062,1.343-2.514,3.164-3.392,4.206a3.6,3.6,0,0,0-.732,2.646,3.862,3.862,0,0,1-1.5,3.305c-2.308,1.787-3.542,4.46-4.442,6.411l-.035.077c-.153.329-.3.642-.442.939-.608,1.235-.286,2.865.152,4.442l.013.043.563,1.869c.051.224.1.453.13.673a4.928,4.928,0,0,1-.523,3.56c-.513.683-1.116,1.462-1.85,2.4l-1.178,1.521c-.385.5-.748.988-1.075,1.427l-.039.054-.031.046a7.09,7.09,0,0,0-1.4,4.147c.1,2.874,2.573,6.456,4.631,8.955a2.225,2.225,0,0,1,0,2.781l-.453.626a2.186,2.186,0,0,1-3.03.515,13.149,13.149,0,0,1-4.133-5.383,14.978,14.978,0,0,0-1.046-1.891c-1.066-1.529-3.346-1.632-5.072-1.448a3.826,3.826,0,0,1-.523.021l1.748-1.61a2.012,2.012,0,1,0-2.726-2.96L323.4,95.834a2.011,2.011,0,0,0-.117,2.843l4.993,5.421a2.012,2.012,0,0,0,2.96-2.727l-1.8-1.953a7.87,7.87,0,0,0,1.311-.026,5.231,5.231,0,0,1,1.511.014c.17.294.37.695.578,1.116a17,17,0,0,0,5.407,6.872,6.14,6.14,0,0,0,3.568,1.135,6.225,6.225,0,0,0,5.053-2.574l.454-.627a6.232,6.232,0,0,0-.159-7.7c-2.688-3.264-3.681-5.56-3.715-6.533a3.286,3.286,0,0,1,.712-1.75c.311-.417.653-.873,1-1.335l1.159-1.5c.744-.944,1.363-1.746,1.9-2.454a8.592,8.592,0,0,0,1.282-6.6c-.055-.343-.122-.687-.2-1.022-.009-.042-.02-.085-.033-.126l-.577-1.913a7.29,7.29,0,0,1-.338-1.723c.134-.279.269-.57.409-.873l.036-.078c.807-1.749,1.721-3.732,3.251-4.915a7.882,7.882,0,0,0,3.05-6.745l0-.04c.921-1.1,2.266-2.792,3.265-4.055A5.652,5.652,0,0,0,358.742,49.518Z"/><path class="c" d="M317.1,95.17c-.668.2-1.343.432-2.007.683a9.524,9.524,0,0,0-3.079,1.886,9.6,9.6,0,0,1-4.485,2.022c-2.312.508-3.67,2.307-3.825,5.066a1.259,1.259,0,0,1-.573,1,1.272,1.272,0,0,1-1.159.132,5.7,5.7,0,0,1-3.637-4.355,7.322,7.322,0,0,0-1.411-3.1,3.016,3.016,0,0,0-3.519-.975,5.027,5.027,0,0,1-3.935.22,1.486,1.486,0,0,1-.711-1.178,7.066,7.066,0,0,0-1.045-2.857,5.061,5.061,0,0,0-5.437-2.549c-2.673.7-8.261-1.393-11.325-2.949a11.63,11.63,0,0,0-4.858-2.185,3.971,3.971,0,0,1-2.817-2.459,15.576,15.576,0,0,0-2.1-3.761,20.3,20.3,0,0,0-2.082-2.381,6.922,6.922,0,0,1-1.807-3.007c-1.45-5-1.5-11.649-1.4-15.167a21.154,21.154,0,0,1,.526-4.12l1.883-8.268a1.708,1.708,0,0,1,2.025-1.284c.608.133.794.463.961,1.1a3.207,3.207,0,0,0,.14.443,2.012,2.012,0,0,0,3.743-.064,7.15,7.15,0,0,0,.215-.683,1.077,1.077,0,0,1,1.291-.8c2.852.646,10.42,2.285,19.069,3.538l.036,0,4.65.587-1.813,1.586a2.012,2.012,0,1,0,2.648,3.029l5.549-4.85a2.014,2.014,0,0,0,.19-2.84L292.149,41.1a2.012,2.012,0,0,0-3.03,2.649l1.724,1.971-4.544-.574c-8.5-1.233-15.935-2.842-18.741-3.478a5.088,5.088,0,0,0-4.271.956,5.226,5.226,0,0,0-2.1-.965,5.742,5.742,0,0,0-6.811,4.32l-1.883,8.267a25.168,25.168,0,0,0-.626,4.9c-.107,3.754-.046,10.876,1.556,16.4a10.953,10.953,0,0,0,2.859,4.764,16.29,16.29,0,0,1,1.665,1.9,11.575,11.575,0,0,1,1.561,2.777,7.984,7.984,0,0,0,5.654,4.958,7.224,7.224,0,0,1,3.261,1.407,2,2,0,0,0,.45.32c.81.422,7.166,3.648,12.184,3.647a8.887,8.887,0,0,0,2.24-.262c.158-.04.65.213.981.755a3.154,3.154,0,0,1,.482,1.223,5.533,5.533,0,0,0,2.659,4.176c2.342,1.387,5.164.821,6.686.338a3.075,3.075,0,0,1,.275.8,9.684,9.684,0,0,0,6.212,7.383,5.362,5.362,0,0,0,1.84.329,5.316,5.316,0,0,0,5.288-5.02c.069-1.227.416-1.3.669-1.359a13.448,13.448,0,0,0,6.337-2.983,5.519,5.519,0,0,1,1.786-1.091c.582-.22,1.172-.421,1.754-.6A2.012,2.012,0,0,0,317.1,95.17Z"/></g></svg>